<?xml version="1.0" encoding="UTF-8"?>
<svg id="Layer_1" xmlns="http://www.w3.org/2000/svg" viewBox="0 0 472.18 91.03">
  <defs>
    <style>
      .cls-1 {
        fill: #80A4ED;
      }
    </style>
  </defs>
  <g>
    <path class="cls-1" d="M51.65,0c4.04-.07,7.69,1.42,11.24,3.16,6.52,2.98,12.98,6.07,19.47,9.11,4.37,2.07,8.76,4.12,13.15,6.13,2.83,1.46,6.64,2.2,7.53,5.71.99,3.65-2.44,6.88-5.91,7.16-3.01.38-6.41-.77-8.11-3.38-.68-1.04-1.58-1.69-2.71-2.14-10.9-4.98-21.57-10.62-32.62-15.24-3.47-.89-6.7.96-9.75,2.34-4.14,1.75-8.24,3.59-12.35,5.41-5.08,2.27-10.18,4.47-15.2,6.86-2.71,1.56-4.22,5.19-2.85,8.13.87,2.13,2.76,3.37,4.81,4.21,2.46,1.17,4.93,2.32,7.39,3.48,10.62,4.99,21.18,10.13,31.95,14.79,7.82,4.44.93,12.63-6.35,10.48-3.9-.8-3.94-3.55-6.83-4.91-8.45-3.9-16.83-7.96-25.29-11.85-4.65-2.43-9.97-3.9-13.83-7.57-5.74-5.43-6.16-14.99-.97-20.93,2.34-2.94,5.82-4.61,9.21-6.04,3.58-1.58,7.14-3.2,10.73-4.76,6.04-2.64,12.04-5.39,18.11-7.95C45.36.82,48.46,0,51.65,0Z"/>
    <path class="cls-1" d="M52.1,91.03c-7.09.21-11.96-3.57-18.05-6.12-4.61-2.17-9.21-4.34-13.82-6.49-5.15-2.41-10.27-4.89-15.49-7.16-1.06-.46-2.11-.93-2.96-1.74-4.73-4.56.83-10.63,6.31-9.71,1.99.17,3.73.95,5.22,2.24,1.08.88,1.49,2.42,2.84,2.99,1.77.82,3.53,1.65,5.29,2.49,6.15,2.96,12.37,5.77,18.54,8.68,1.46.68,2.9,1.4,4.36,2.06,2.52,1.04,4.97,2.7,7.81,2.4,3.79-.38,7.02-2.6,10.51-3.93,4.53-2.03,9.08-4,13.64-5.97,3.26-1.45,6.54-2.87,9.79-4.34,2.81-1.11,4.82-4.22,4.12-7.25-.87-4.77-6.44-5.6-10.06-7.69-3.03-1.44-6.06-2.88-9.09-4.32-7.26-3.43-14.49-6.93-21.83-10.17-2.3-1.01-5.04-1.67-6.27-4.11-2.97-6.11,6.02-10.02,10.73-7.27,1.22.58,2.28,1.4,3.02,2.54,1.6,2.23,5.95,3.24,8.43,4.68,9.78,4.58,19.62,9.06,29.31,13.83,9.18,5.25,10.82,17.81,3.03,25.1-3.29,3.12-7.83,4.29-11.82,6.26-7.39,3.25-14.79,6.51-22.19,9.73-3.41,1.65-7.65,3.18-11.35,3.29Z"/>
  </g>
  <g>
    <path class="cls-1" d="M142.04,59.64v-5.96c2.93,1.49,8.85,2.93,13.84,2.93,3.72,0,6.79-.48,6.79-2.85,0-2.72-3.28-2.85-11.17-4.91-6.04-1.58-9.72-3.33-9.72-8.32,0-7.05,7.53-9.28,14.32-9.28,4.42,0,8.8.7,11.56,1.8v6.17c-3.33-1.36-8.71-2.15-11.87-2.1-3.63.04-6.57.39-6.57,3.02,0,2.01,3.11,2.5,8.01,3.63,7.18,1.62,12.7,3.15,12.7,9.37,0,6.96-6.44,9.28-14.41,9.28-5.43,0-10.86-1.36-13.49-2.8Z"/>
    <path class="cls-1" d="M185,31.66h7.18v24.52h19.4v5.96h-26.58v-30.48Z"/>
    <path class="cls-1" d="M226.35,31.66h7.18v30.48h-7.18v-30.48Z"/>
    <path class="cls-1" d="M250.08,31.66h6.74l18.22,18.39c1.05,1.05,1.97,2.15,2.63,2.98l.17-.04c-.09-.66-.17-3.11-.17-4.82v-16.51h6.88v30.48h-6.79l-18.35-18.52c-1.09-1.05-1.8-1.88-2.45-2.76l-.13.04c.09,1.31.13,3.46.13,4.73v16.51h-6.88v-30.48Z"/>
    <path class="cls-1" d="M299.71,46.85c0-9.63,8.71-15.59,19.66-15.59,4.99,0,9.59.92,13.4,2.67v6.44c-3.77-1.75-8.19-2.67-12.92-2.67-7.66,0-12.09,3.85-12.09,9.07,0,6.31,6.83,9.15,13.53,9.15,2.01,0,3.99-.26,5.56-.61v-9.98h7.23v14.85l-1.01.39c-1.71.66-5.74,1.84-12.35,1.84-11.25,0-21.06-5.21-21.02-15.55Z"/>
    <path class="cls-1" d="M348.32,59.64v-5.96c2.93,1.49,8.85,2.93,13.84,2.93,3.72,0,6.79-.48,6.79-2.85,0-2.72-3.29-2.85-11.17-4.91-6.04-1.58-9.72-3.33-9.72-8.32,0-7.05,7.53-9.28,14.32-9.28,4.42,0,8.8.7,11.56,1.8v6.17c-3.33-1.36-8.71-2.15-11.87-2.1-3.63.04-6.57.39-6.57,3.02,0,2.01,3.11,2.5,8.01,3.63,7.18,1.62,12.7,3.15,12.7,9.37,0,6.96-6.44,9.28-14.41,9.28-5.43,0-10.86-1.36-13.49-2.8Z"/>
    <path class="cls-1" d="M391.68,31.66h7.18v14.63l16.2-14.63h8.41l-14.98,13.79,16.07,16.69h-8.8l-12-12.35-4.91,4.51v7.84h-7.18v-30.48Z"/>
    <path class="cls-1" d="M450.63,52.07l-15.42-20.41h8.28l10.69,14.32,9.42-14.32h7.93l-13.18,19.84-.53.79v9.85h-7.18v-10.07Z"/>
  </g>
</svg>
