<?xml version="1.0" encoding="UTF-8"?>
<svg id="Layer_1" xmlns="http://www.w3.org/2000/svg" viewBox="0 0 561.69 495.36">
  <defs>
    <style>
      .cls-1 {
        fill: #85a2d4;
      }
    </style>
  </defs>
  <path class="cls-1" d="M281.05.01c21.97-.4,41.87,7.7,61.17,17.19,35.45,16.24,70.65,33.02,105.96,49.58,23.79,11.26,47.65,22.4,71.58,33.35,15.41,7.96,36.15,11.95,40.99,31.07,5.39,19.84-13.27,37.43-32.14,38.94-16.4,2.04-34.85-4.21-44.12-18.4-3.7-5.66-8.6-9.2-14.76-11.67-59.33-27.11-117.39-57.76-177.5-82.92-18.89-4.86-36.46,5.21-53.08,12.71-22.54,9.5-44.84,19.56-67.2,29.46-27.63,12.33-55.41,24.35-82.73,37.34-14.74,8.51-22.98,28.24-15.49,44.25,4.74,11.57,15.02,18.36,26.18,22.89,13.38,6.35,26.81,12.61,40.2,18.95,57.8,27.13,115.23,55.12,173.83,80.5,42.56,24.17,5.04,68.71-34.53,57.01-21.24-4.35-21.46-19.34-37.14-26.74-45.99-21.22-91.59-43.3-137.59-64.5-25.29-13.21-54.25-21.2-75.28-41.2C-1.87,198.3-4.13,146.29,24.09,113.95c12.72-16,31.67-25.1,50.11-32.86,19.48-8.58,38.86-17.39,58.36-25.9,32.89-14.35,65.49-29.34,98.57-43.26C246.8,4.48,263.72,0,281.05.01Z"/>
  <path class="cls-1" d="M283.52,495.32c-38.56,1.12-65.07-19.44-98.24-33.28-25.06-11.78-50.09-23.64-75.2-35.33-28.02-13.12-55.89-26.61-84.26-38.97-5.79-2.51-11.47-5.07-16.1-9.48-25.75-24.79,4.5-57.82,34.32-52.85,10.82.94,20.27,5.16,28.38,12.21,5.85,4.79,8.12,13.2,15.44,16.25,9.62,4.47,19.22,8.97,28.8,13.52,33.46,16.08,67.29,31.39,100.88,47.23,7.92,3.71,15.76,7.6,23.72,11.23,13.72,5.65,27.04,14.68,42.5,13.04,20.61-2.05,38.18-14.16,57.19-21.39,24.64-11.04,49.43-21.76,74.2-32.51,17.74-7.91,35.57-15.62,53.26-23.64,15.3-6.04,26.24-22.95,22.41-39.46-4.75-25.97-35.05-30.45-54.72-41.86-16.48-7.85-32.98-15.66-49.48-23.49-39.5-18.66-78.83-37.7-118.8-55.33-12.54-5.51-27.44-9.1-34.09-22.36-16.15-33.23,32.78-54.53,58.39-39.57,6.64,3.16,12.39,7.64,16.43,13.82,8.7,12.15,32.37,17.65,45.87,25.45,53.23,24.93,106.74,49.29,159.47,75.27,49.96,28.59,58.85,96.94,16.48,136.59-17.91,16.97-42.62,23.37-64.33,34.05-40.24,17.69-80.46,35.41-120.75,52.96-18.55,8.98-41.62,17.28-61.75,17.9Z"/>
</svg>